# xmcd
#
# Track frame offsets:
#	150
#	16518
#	35300
#	52586
#	73413
#	88442
#	106157
#	123731
#	153663
#	173305
#	192879
#	196206
#	211663
#	227910
#
# Disc length: 3308 seconds
#
# Revision: 1
# Processed by: cddbd v1.5.2PL0 Copyright (c) Steve Scherf et al.
# Submitted via: audiograbber 1.83.01
#
DISCID=b00cea0e
DTITLE=Tanja Ries - Metanoia
DYEAR=2002
DGENRE=Alternative Rock
TTITLE0=Bis ans Ende zurück
TTITLE1=Wenn ich mich verliere
TTITLE2=Bleiben oder gehen
TTITLE3=Straussberger Platz
TTITLE4=Anna
TTITLE5=Halt mich
TTITLE6=Im Mehr
TTITLE7=Rausch
TTITLE8=Keine Küsse mehr
TTITLE9=Ich zerstöre
TTITLE10=Bilbao
TTITLE11=Mohn
TTITLE12=Haus am See
TTITLE13=Freier Fall
EXTD=
EXTT0=
EXTT1=
EXTT2=
EXTT3=
EXTT4=
EXTT5=
EXTT6=
EXTT7=
EXTT8=
EXTT9=
EXTT10=
EXTT11=
EXTT12=
EXTT13=
PLAYORDER=
